<svg width="24" height="24" viewBox="0 0 24 24" fill="none" xmlns="http://www.w3.org/2000/svg">
<path d="M17.0626 20H4.60417C4.2705 20 4 19.7358 4 19.4097V9.76875C4 9.44275 4.2705 9.17848 4.60417 9.17848H7.39104C8.09845 9.17848 8.75399 8.81586 9.11794 8.22323L11.8472 3.77914C12.4362 2.82023 13.8232 2.72907 14.5383 3.60231C14.8753 4.01391 14.9839 4.56099 14.8289 5.06587L13.7994 8.4186C13.6831 8.79733 13.9734 9.17848 14.3781 9.17848H18.985C20.3128 9.17848 21.2773 10.4121 20.9279 11.6637L19.0055 18.5501C18.7666 19.4062 17.9708 20 17.0626 20Z" stroke="white" stroke-width="2" stroke-linecap="round"/>
<path d="M7 20C7 20.5523 7.44772 21 8 21C8.55229 21 9 20.5523 9 20L7 20ZM9 20L9 9L7 9L7 20L9 20Z" fill="white"/>
</svg>
